<?xml version="1.0" standalone="no"?>
<!DOCTYPE svg PUBLIC "-//W3C//DTD SVG 1.1//EN" "http://www.w3.org/Graphics/SVG/1.1/DTD/svg11.dtd">
<svg xmlns="http://www.w3.org/2000/svg" width="1688" height="566" viewBox="0 0 1688 566" version="1.1">
<g id="#f26a06ff">
<path fill="#f26a06" opacity="1.00" d=" M 0.00 0.00 L 0.13 0.00 C 0.10 0.03 0.03 0.10 0.00 0.13 L 0.00 0.00 Z"/>
<path fill="#f26a06" opacity="1.00" d=" M 149.15 86.20 C 220.52 68.57 303.86 97.42 341.89 162.11 C 358.75 189.89 366.42 222.66 366.14 255.00 C 366.30 313.63 366.08 372.24 365.78 430.85 C 315.25 430.79 264.72 430.94 214.19 430.78 C 213.58 374.20 214.12 317.59 213.91 261.00 C 213.96 254.61 215.59 247.28 211.17 241.87 C 202.34 229.62 181.62 229.51 172.69 241.68 C 167.69 248.00 168.97 256.50 168.93 264.00 C 168.97 319.62 169.00 375.25 168.93 430.88 C 150.07 430.76 131.21 431.02 112.35 430.77 C 111.69 412.59 111.79 394.36 112.28 376.17 C 130.61 375.55 148.99 376.67 167.30 375.57 C 140.57 362.12 116.70 336.86 112.97 305.97 C 113.21 289.99 113.21 273.98 113.05 257.99 C 113.64 229.54 127.85 200.55 152.69 185.73 C 166.74 177.73 183.23 172.06 199.54 174.50 C 237.91 178.81 268.42 213.86 269.90 251.96 C 270.30 293.19 269.46 334.46 270.10 375.68 C 284.06 376.36 298.05 375.89 312.02 376.03 C 312.05 336.35 311.94 296.68 312.08 257.00 C 311.37 239.62 308.53 221.92 300.92 206.10 C 280.57 165.51 235.68 137.65 190.00 139.81 C 132.54 138.74 75.28 186.14 72.98 245.01 C 72.88 306.96 73.05 368.91 72.92 430.86 C 54.38 430.79 35.84 430.95 17.30 430.74 C 16.51 375.18 17.20 319.58 16.99 264.00 C 16.56 232.78 21.51 200.89 35.96 172.89 C 57.68 128.53 101.17 96.57 149.15 86.20 Z"/>
</g>
<g id="#24344eff">
<path fill="#24344e" opacity="1.00" d=" M 439.47 153.54 C 460.03 151.93 482.67 152.08 499.89 165.14 C 518.59 178.77 524.63 203.02 524.55 225.06 C 524.71 271.53 524.95 318.03 524.43 364.49 C 524.38 390.01 515.37 418.70 491.57 431.55 C 468.94 443.03 440.25 443.14 417.77 431.22 C 394.88 418.43 385.98 390.82 385.35 366.02 C 385.11 318.68 385.27 271.34 385.27 224.00 C 385.64 204.42 390.11 182.95 405.28 169.28 C 414.30 160.06 427.01 155.62 439.47 153.54 M 450.27 205.20 C 443.17 207.78 441.28 216.27 440.93 222.98 C 440.90 268.32 440.94 313.66 440.92 359.00 C 440.75 366.72 440.73 374.82 444.05 381.98 C 447.41 390.37 461.85 390.65 465.06 382.01 C 467.93 374.38 467.90 366.04 468.12 358.00 C 467.84 312.04 468.47 266.03 467.80 220.08 C 468.26 210.43 460.65 200.68 450.27 205.20 Z"/>
<path fill="#24344e" opacity="1.00" d=" M 1558.78 163.74 C 1570.31 155.38 1584.92 152.11 1599.01 153.07 C 1617.67 152.09 1638.09 156.60 1651.41 170.54 C 1667.09 188.14 1670.35 213.14 1669.88 235.84 C 1650.98 235.82 1632.08 235.82 1613.19 235.84 C 1612.70 227.93 1612.85 219.96 1611.91 212.10 C 1609.99 203.65 1598.69 202.79 1592.26 206.29 C 1586.15 211.14 1586.84 220.30 1589.00 226.99 C 1593.95 240.27 1605.83 248.82 1615.59 258.41 C 1627.97 271.06 1641.71 282.37 1652.69 296.35 C 1666.14 312.68 1672.16 334.05 1671.90 355.00 C 1671.51 378.35 1668.85 403.77 1653.39 422.44 C 1638.14 439.52 1613.19 441.62 1591.80 439.27 C 1573.08 437.56 1553.35 429.18 1544.22 411.81 C 1530.67 387.45 1534.63 358.77 1534.09 332.08 C 1552.36 332.07 1570.64 332.07 1588.92 332.09 C 1589.81 347.77 1587.01 363.90 1590.61 379.29 C 1592.99 390.94 1612.23 391.46 1614.92 379.88 C 1618.87 360.47 1613.99 338.63 1599.21 324.78 C 1576.53 298.79 1543.37 278.47 1535.42 242.71 C 1531.07 215.18 1534.76 181.61 1558.78 163.74 Z"/>
<path fill="#24344e" opacity="1.00" d=" M 544.12 155.10 C 562.38 155.04 580.65 155.08 598.92 155.08 C 598.93 221.05 598.93 287.03 598.92 353.00 C 598.91 362.44 598.66 372.20 601.71 381.27 C 604.99 391.18 622.01 390.56 624.30 380.27 C 627.02 370.46 626.99 360.11 627.09 350.00 C 627.06 285.03 627.07 220.06 627.09 155.08 C 645.28 155.11 663.47 154.99 681.67 155.15 C 681.51 223.44 681.68 291.74 681.59 360.03 C 681.35 380.63 678.62 402.71 665.31 419.32 C 653.05 434.42 632.79 440.08 614.00 439.99 C 594.83 440.37 573.78 435.32 561.02 420.01 C 547.51 404.03 544.53 382.21 544.13 362.00 C 544.11 293.03 544.13 224.07 544.12 155.10 Z"/>
<path fill="#24344e" opacity="1.00" d=" M 703.27 155.14 C 727.85 154.98 752.42 155.13 777.00 155.06 C 797.06 154.44 821.19 159.38 830.84 179.17 C 840.39 198.91 839.35 221.69 837.98 243.01 C 836.97 259.49 826.95 275.77 810.37 280.25 C 834.29 286.45 840.69 313.50 841.74 334.97 C 842.25 363.01 841.78 393.63 825.89 417.91 C 816.73 430.91 800.46 436.89 785.01 436.96 C 757.76 436.84 730.51 437.03 703.27 436.86 C 703.34 342.96 703.34 249.05 703.27 155.14 M 758.70 197.95 C 758.48 219.04 758.57 240.13 758.65 261.22 C 766.06 260.89 777.52 263.78 780.53 254.49 C 784.89 239.60 782.92 223.61 782.55 208.32 C 781.24 196.61 767.43 197.40 758.70 197.95 M 758.65 305.69 C 758.58 333.16 758.46 360.64 758.71 388.10 C 770.30 389.72 785.78 384.84 785.99 370.95 C 785.60 352.61 788.16 333.77 784.20 315.75 C 781.28 304.29 767.92 305.14 758.65 305.69 Z"/>
<path fill="#24344e" opacity="1.00" d=" M 880.42 155.16 C 912.44 155.03 944.48 154.99 976.51 155.18 C 984.62 249.38 994.54 343.44 1003.01 437.61 C 985.36 437.50 967.71 437.48 950.06 437.62 C 948.20 422.40 947.15 407.07 945.91 391.78 C 934.28 391.70 922.66 391.68 911.04 391.80 C 910.23 406.86 909.23 421.93 907.69 436.92 C 889.80 436.92 871.92 436.94 854.04 436.91 C 861.51 342.92 872.30 249.13 880.42 155.16 M 926.14 202.89 C 922.62 250.95 919.16 299.01 915.76 347.08 C 924.30 347.08 932.84 347.08 941.39 347.08 C 937.57 299.01 933.26 250.97 928.98 202.94 C 928.27 202.93 926.85 202.90 926.14 202.89 Z"/>
<path fill="#24344e" opacity="1.00" d=" M 1097.31 155.14 C 1121.87 154.98 1146.43 155.13 1171.00 155.07 C 1185.08 154.95 1199.94 157.78 1211.07 166.94 C 1223.43 177.38 1229.28 193.42 1232.08 208.92 C 1235.90 231.86 1235.68 255.51 1231.35 278.37 C 1228.23 293.80 1221.60 310.13 1207.30 318.33 C 1190.79 327.87 1171.11 325.24 1152.90 325.69 C 1152.89 362.76 1152.90 399.83 1152.89 436.91 C 1134.36 436.91 1115.83 437.01 1097.31 436.85 C 1097.40 342.95 1097.40 249.05 1097.31 155.14 M 1152.91 205.86 C 1152.90 228.97 1152.87 252.07 1152.92 275.18 C 1160.42 274.33 1169.99 274.82 1174.51 267.49 C 1181.39 252.34 1179.69 234.31 1176.67 218.32 C 1174.56 207.42 1162.28 205.05 1152.91 205.86 Z"/>
<path fill="#24344e" opacity="1.00" d=" M 1253.08 155.08 C 1271.69 155.07 1290.30 155.07 1308.91 155.08 C 1308.93 233.18 1308.93 311.27 1308.92 389.37 C 1328.22 389.55 1347.53 389.49 1366.84 389.39 C 1366.98 405.46 1366.98 421.54 1366.84 437.62 C 1328.95 437.49 1291.05 437.49 1253.16 437.62 C 1252.97 343.44 1253.12 249.26 1253.08 155.08 Z"/>
<path fill="#24344e" opacity="1.00" d=" M 1380.08 155.08 C 1398.33 155.08 1416.57 155.03 1434.82 155.11 C 1434.79 223.41 1434.80 291.70 1434.81 360.00 C 1434.83 367.44 1435.01 375.16 1437.94 382.12 C 1441.63 390.68 1456.53 390.42 1459.57 381.49 C 1462.66 373.38 1462.36 364.53 1462.44 356.00 C 1462.39 289.05 1462.53 222.10 1462.37 155.16 C 1480.55 154.97 1498.73 155.11 1516.92 155.09 C 1516.93 227.39 1516.94 299.70 1516.91 372.00 C 1515.83 390.19 1511.16 409.57 1497.74 422.74 C 1485.34 435.86 1466.44 440.06 1449.00 440.00 C 1430.75 440.28 1411.09 435.55 1398.33 421.66 C 1382.50 404.36 1379.66 379.49 1380.08 357.00 C 1380.08 289.69 1380.06 222.39 1380.08 155.08 Z"/>
</g>
</svg>